<svg width="24" height="24" viewBox="0 0 24 24" fill="none" xmlns="http://www.w3.org/2000/svg">
  <circle cx="12" cy="12" r="10" stroke="currentColor" stroke-width="2" fill="none"/>
  <path d="M9 7.5L9.6 8.8L11 9L9.9 10L10.3 11.4L9 10.6L7.7 11.4L8.1 10L7 9L8.4 8.8L9 7.5Z" fill="currentColor"/>
  <path d="M15 7.5L15.6 8.8L17 9L15.9 10L16.3 11.4L15 10.6L13.7 11.4L14.1 10L13 9L14.4 8.8L15 7.5Z" fill="currentColor"/>
  <path d="M8 14C8.5 16.5 10.5 17.5 12 17.5C13.5 17.5 15.5 16.5 16 14H8Z" fill="currentColor"/>
</svg>
